<svg xmlns="http://www.w3.org/2000/svg" viewBox="0 0 256 256" width="256" height="256" fill="none">
  <defs>
    <filter id="softShadow" x="-20%" y="-20%" width="140%" height="140%">
      <feDropShadow dx="0" dy="6" stdDeviation="7" flood-opacity="0.18"/>
    </filter>
  </defs>

  <g transform="rotate(15 128 128)">
    <g filter="url(#softShadow)"
       stroke="#141414" stroke-width="6"
       stroke-linecap="round" stroke-linejoin="round">

      <!-- Mid-left veil -->
      <path d="M124 216
               C98 202, 82 176, 84 144
               C86 110, 98 88, 92 50
               C114 72, 134 98, 136 132
               C138 170, 132 202, 124 216 Z"
            fill="#FF4D8D"/>

      <!-- Mid-right veil -->
      <path d="M132 216
               C158 202, 174 176, 172 144
               C170 110, 158 88, 164 52
               C142 74, 122 100, 120 132
               C118 170, 124 202, 132 216 Z"
            fill="#FF4D8D"/>

      <!-- Front core veil -->
      <path d="M128 216
               C108 202, 96 176, 98 150
               C100 112, 114 88, 128 44
               C142 88, 166 112, 168 150
               C170 176, 148 202, 128 216 Z"
            fill="#FF2F7D"/>

      <!-- Cover-left veil -->
      <path d="M122 216
               C88 204, 58 172, 60 136
               C62 98, 78 78, 70 62
               C92 90, 114 102, 118 134
               C122 172, 122 204, 122 216 Z"
            fill="#22C96A"/>

      <!-- Cover-right veil (smoothed numbers, same intent) -->
      <path d="M118 218
               C156 222, 198 176, 195 132
               C194 94, 176 78, 188 64
               C170 96, 150 106, 140 140
               C134 162, 88 198, 118 218 Z"
            fill="#22C96A"/>
    </g>
  </g>
</svg>
