<svg xmlns="http://www.w3.org/2000/svg" viewBox="0 0 256 256" role="img" aria-label="NameSpring leaf logo">
  <defs>
    <filter id="shadow" x="-20%" y="-20%" width="140%" height="160%">
      <feDropShadow dx="0" dy="10" stdDeviation="10" flood-color="#16a34a" flood-opacity="0.2" />
    </filter>
  </defs>

  <g filter="url(#shadow)">
    <rect
      x="40"
      y="40"
      width="176"
      height="176"
      rx="58"
      fill="#22c55e"
      transform="rotate(8 128 128)"
    />
  </g>

  <path
    d="M148 82c-20 1-33 13-41 26-7 10-10 21-22 26-4 2-8 6-10 12-1 3 1 5 4 4 6-2 10-6 12-10 8-12 18-15 28-12 13 5 27 3 39-6 16-12 21-33 17-53-8 6-16 11-27 13z"
    fill="#f8fafc"
  />
  <path
    d="M89 143c8-8 15-18 22-29"
    fill="none"
    stroke="#f8fafc"
    stroke-width="6"
    stroke-linecap="round"
  />
</svg>
